# xmcd CD database file
# Generated: Tue Aug 5 01:30:28 2003 by KSCD
# 
# Track frame offsets:
#       150
#       11682
#       22388
#       35300
#       47121
#       57753
#       69117
#       80719
#       90962
#       102303
#       113067
#       123620
#
# Disc length: 1790 seconds
#
# Revision: 2
# Processed by: cddbd v1.4PL0 Copyright (c) Steve Scherf et al.
# Submitted via: Kscd 1.3.3
#
DISCID=9706fc0c
DTITLE=Robert Johnson - The Great Robert Johnson
DYEAR=1900
DGENRE=Blues
TTITLE0=Kindhearted Woman Blues
TTITLE1=Rambling on My Mind
TTITLE2=When You Got a Good Friend
TTITLE3=Come On in My Kitchen
TTITLE4=Terraplane Blues
TTITLE5=Cross Road Blues
TTITLE6=Phonograph Blues
TTITLE7=Little Queen of Spades
TTITLE8=Me and the Devil Blues
TTITLE9=Stop Breakin' Down Blues
TTITLE10=Drunken Hearted Man
TTITLE11=Love in Vain
EXTD=Disc 3 of 3 (The Alternative Recordings)
EXTT0=
EXTT1=
EXTT2=
EXTT3=
EXTT4=
EXTT5=
EXTT6=
EXTT7=
EXTT8=
EXTT9=
EXTT10=
EXTT11=
PLAYORDER=
